<svg width="35" height="11" viewBox="0 0 35 11" fill="none" xmlns="http://www.w3.org/2000/svg">
<g id="Group 21635">
<path id="Path 26954" d="M26.7879 10.4004H24.9126L27.5185 0H29.3942L26.7879 10.4004Z" fill="#1D1D1B"/>
<path id="Path 26955" d="M25.8141 0.327709C25.7447 0.226052 25.6534 0.145328 25.5484 0.0929748C25.4434 0.0406219 25.3282 0.0183236 25.2134 0.0281346H14.9125L14.4046 2.06665H23.7758L23.2319 4.24324H13.8543L12.3003 10.4524H14.176L15.2173 6.28644H23.6412C23.9125 6.2852 24.1752 6.18111 24.3854 5.99154C24.6076 5.8087 24.7684 5.54934 24.8426 5.25431L25.8844 1.08835C25.928 0.964476 25.9444 0.830909 25.9322 0.69866C25.9199 0.566411 25.8795 0.439267 25.8141 0.327709Z" fill="#1D1D1B"/>
<path id="Path 26956" d="M11.2099 9.75045C11.1603 9.95145 11.0526 10.129 10.9031 10.2558C10.7536 10.3826 10.5707 10.4517 10.3823 10.4526H0.71513C0.602501 10.4619 0.489562 10.4398 0.386679 10.3882C0.283797 10.3367 0.194266 10.2574 0.126303 10.1577C0.0607711 10.0511 0.0192725 9.92875 0.0052796 9.80081C-0.00871333 9.67288 0.00520638 9.54309 0.045874 9.42233L2.40203 0.0283203H4.27772L2.17132 8.42577H9.67113L11.7881 0.0400224H13.6418L11.2099 9.75045Z" fill="#1D1D1B"/>
<path id="Path 26957" d="M32.6297 0.019043L35.0002 5.23117L30.0166 10.4433L32.6297 0.019043Z" fill="#575756"/>
<path id="Path 26958" d="M30.9651 0.019043L33.3357 5.23117L28.3486 10.4433L30.9651 0.019043Z" fill="#1D1D1B"/>
</g>
</svg>
