<svg width="24" height="19" viewBox="0 0 24 19" fill="none" xmlns="http://www.w3.org/2000/svg">
<path id="Vector" d="M21.6188 4.07143H3.75C3.33562 4.07143 3 3.76777 3 3.39286C3 3.01795 3.33562 2.71429 3.75 2.71429H21.75C22.1644 2.71429 22.5 2.41062 22.5 2.03571C22.5 0.911406 21.4927 0 20.25 0H3C1.34297 0 0 1.21507 0 2.71429V16.2857C0 17.7849 1.34297 19 3 19H21.6188C22.9322 19 24 18.0869 24 16.9643V6.10714C24 4.98453 22.9322 4.07143 21.6188 4.07143ZM19.5 12.8929C18.6717 12.8929 18 12.2851 18 11.5357C18 10.7863 18.6717 10.1786 19.5 10.1786C20.3283 10.1786 21 10.7863 21 11.5357C21 12.2851 20.3283 12.8929 19.5 12.8929Z" fill="black"/>
</svg>
